<svg xmlns="http://www.w3.org/2000/svg" width="1400" height="290" viewBox="0 0 1400 290" role="img" aria-labelledby="title desc">
  <title id="title">Swabir M. Swabir</title>
  <desc id="desc">A warm, typography-led banner. Swabir M. Swabir builds tools that make complex workflows clearer, more useful, and more secure, alongside a gold compass mark from Disciple.</desc>
  <defs>
    <linearGradient id="paper" x1="0" y1="0" x2="1" y2="1">
      <stop offset="0" stop-color="#f7f3ea"/>
      <stop offset="1" stop-color="#eee8dc"/>
    </linearGradient>
    <clipPath id="rounding"><rect width="1400" height="290" rx="22"/></clipPath>
  </defs>

  <g clip-path="url(#rounding)">
    <rect width="1400" height="290" fill="url(#paper)"/>
    <path d="M80 254H1320" stroke="#cfc5b5" stroke-width="1"/>
    <path d="M80 253H170" stroke="#a64f2b" stroke-width="3"/>

    <g font-family="Inter, ui-sans-serif, system-ui, Arial, sans-serif">
      <text x="80" y="55" fill="#92502f" font-size="16" font-weight="650" letter-spacing="3">SOFTWARE ENGINEERING  /  CYBERSECURITY</text>
      <text x="74" y="143" fill="#20252a" font-family="Georgia, 'Times New Roman', serif" font-size="78" font-weight="700" letter-spacing="-1.5">SWABIR M. SWABIR</text>
      <text x="80" y="190" fill="#3b4650" font-size="25" font-weight="450">I build tools that make complex workflows clearer,</text>
      <text x="80" y="222" fill="#3b4650" font-size="25" font-weight="450">more useful, and more secure.</text>
    </g>

    <g transform="translate(1110 65) scale(2.5)">
      <rect width="64" height="64" rx="14" fill="#090A10"/>
      <circle cx="32" cy="32" r="22" fill="none" stroke="#E5B869" stroke-width="1.8" stroke-opacity=".85"/>
      <circle cx="32" cy="32" r="15" fill="none" stroke="#E5B869" stroke-width="1" stroke-opacity=".3" stroke-dasharray="2 3"/>
      <path d="M32 4V60M4 32H60" stroke="#FDE68A" stroke-opacity=".4" stroke-width="1.2"/>
      <path d="M32 2V23L28.5 14Z" fill="#FDE68A"/>
      <path d="M32 2V23L35.5 14Z" fill="#92400E"/>
      <path d="M32 62V41L28.5 50Z" fill="#92400E"/>
      <path d="M32 62V41L35.5 50Z" fill="#FDE68A"/>
      <path d="M62 32H41L50 28.5Z" fill="#FDE68A"/>
      <path d="M62 32H41L50 35.5Z" fill="#92400E"/>
      <path d="M2 32H23L14 28.5Z" fill="#92400E"/>
      <path d="M2 32H23L14 35.5Z" fill="#FDE68A"/>
      <circle cx="32" cy="32" r="4.5" fill="#11141F" stroke="#E5B869" stroke-width="1.5"/>
      <circle cx="32" cy="32" r="1.8" fill="#FDE68A"/>
    </g>
  </g>
</svg>
